<?xml version="1.0" encoding="UTF-8"?>
<svg xmlns="http://www.w3.org/2000/svg" xmlns:xlink="http://www.w3.org/1999/xlink" width="200px" height="67px" viewBox="0 0 201 67" version="1.1">
<defs>
<filter id="alpha" filterUnits="objectBoundingBox" x="0%" y="0%" width="100%" height="100%">
  <feColorMatrix type="matrix" in="SourceGraphic" values="0 0 0 0 1 0 0 0 0 1 0 0 0 0 1 0 0 0 1 0"/>
</filter>
<mask id="mask0">
  <g filter="url(#alpha)">
<rect x="0" y="0" width="201" height="67" style="fill:rgb(0%,0%,0%);fill-opacity:0.301961;stroke:none;"/>
  </g>
</mask>
<clipPath id="clip1">
  <rect x="0" y="0" width="201" height="67"/>
</clipPath>
<g id="surface5" clip-path="url(#clip1)">
<path style=" stroke:none;fill-rule:nonzero;fill:rgb(0%,0%,0%);fill-opacity:1;" d="M 37.609375 40.414062 C 41.640625 39.863281 44.464844 36.257812 44.464844 32.261719 C 44.464844 27.828125 41.058594 23.984375 36.546875 23.984375 L 20.914062 23.984375 L 20.914062 48.796875 L 27.144531 48.796875 L 27.144531 30.21875 L 36.546875 30.21875 C 37.609375 30.21875 38.28125 31.324219 38.28125 32.261719 C 38.28125 33.199219 37.609375 34.292969 36.546875 34.292969 L 28.832031 34.292969 L 31.691406 42.367188 C 32.863281 45.816406 36.4375 48.796875 40.199219 48.796875 L 44.121094 48.796875 L 44.121094 42.566406 L 40.199219 42.566406 C 38.78125 42.566406 38.121094 41.628906 37.609375 40.414062 Z M 37.609375 40.414062 "/>
</g>
</defs>
<g id="surface1">
<path style=" stroke:none;fill-rule:nonzero;fill:rgb(14.509804%,84.705882%,77.254902%);fill-opacity:1;" d="M 160.03125 51.042969 L 160.03125 56.402344 L 156.488281 51.042969 L 154.925781 51.042969 L 154.925781 58.847656 L 156.488281 58.847656 L 156.488281 53.5 L 160.03125 58.847656 L 161.59375 58.847656 L 161.59375 51.042969 Z M 165.792969 53.84375 C 166.59375 53.84375 167.242188 54.359375 167.265625 55.175781 L 164.328125 55.175781 C 164.453125 54.324219 165.042969 53.84375 165.792969 53.84375 Z M 168.726562 56.90625 L 167.042969 56.90625 C 166.839844 57.320312 166.472656 57.652344 165.800781 57.652344 C 165.019531 57.652344 164.394531 57.140625 164.316406 56.222656 L 168.839844 56.222656 C 168.875 56.023438 168.882812 55.820312 168.882812 55.621094 C 168.882812 53.777344 167.621094 52.5625 165.835938 52.5625 C 164.003906 52.5625 162.730469 53.800781 162.730469 55.753906 C 162.730469 57.699219 164.039062 58.949219 165.835938 58.949219 C 167.367188 58.949219 168.394531 58.042969 168.726562 56.90625 Z M 173.441406 58.847656 L 175.203125 58.847656 L 173.148438 55.742188 L 175.183594 52.660156 L 173.507812 52.660156 L 172.367188 54.570312 L 171.105469 52.660156 L 169.34375 52.660156 L 171.386719 55.742188 L 169.363281 58.847656 L 171.039062 58.847656 L 172.167969 56.925781 Z M 180.183594 53.476562 C 180.183594 54.179688 179.792969 54.636719 178.921875 54.636719 L 177.617188 54.636719 L 177.617188 52.347656 L 178.921875 52.347656 C 179.792969 52.347656 180.183594 52.785156 180.183594 53.476562 Z M 176.054688 51.054688 L 176.054688 58.847656 L 177.617188 58.847656 L 177.617188 55.8125 L 178.355469 55.8125 L 180.074219 58.847656 L 181.882812 58.847656 L 180.019531 55.6875 C 181.269531 55.351562 181.792969 54.394531 181.792969 53.445312 C 181.792969 52.136719 180.855469 51.054688 178.980469 51.054688 Z M 185.871094 53.84375 C 186.671875 53.84375 187.320312 54.359375 187.34375 55.175781 L 184.40625 55.175781 C 184.527344 54.324219 185.121094 53.84375 185.871094 53.84375 Z M 188.804688 56.90625 L 187.121094 56.90625 C 186.917969 57.320312 186.550781 57.652344 185.878906 57.652344 C 185.097656 57.652344 184.472656 57.140625 184.394531 56.222656 L 188.917969 56.222656 C 188.949219 56.023438 188.960938 55.820312 188.960938 55.621094 C 188.960938 53.777344 187.699219 52.5625 185.914062 52.5625 C 184.082031 52.5625 182.808594 53.800781 182.808594 55.753906 C 182.808594 57.699219 184.117188 58.949219 185.914062 58.949219 C 187.445312 58.949219 188.472656 58.042969 188.804688 56.90625 Z M 194.902344 57.085938 C 194.859375 54.816406 191.429688 55.519531 191.429688 54.394531 C 191.429688 54.035156 191.730469 53.800781 192.3125 53.800781 C 192.925781 53.800781 193.304688 54.125 193.351562 54.605469 L 194.847656 54.605469 C 194.757812 53.375 193.851562 52.5625 192.355469 52.5625 C 190.828125 52.5625 189.910156 53.386719 189.910156 54.414062 C 189.910156 56.683594 193.40625 55.976562 193.40625 57.085938 C 193.40625 57.441406 193.070312 57.71875 192.457031 57.71875 C 191.832031 57.71875 191.398438 57.363281 191.339844 56.894531 L 189.765625 56.894531 C 189.832031 58.042969 190.917969 58.949219 192.46875 58.949219 C 193.976562 58.949219 194.902344 58.144531 194.902344 57.085938 Z M 194.902344 57.085938 "/>
<use xlink:href="#surface5" mask="url(#mask0)"/>
<path style=" stroke:none;fill-rule:nonzero;fill:rgb(100%,100%,100%);fill-opacity:1;" d="M 78.992188 33.925781 C 78.992188 35.332031 78.210938 36.246094 76.46875 36.246094 L 73.855469 36.246094 L 73.855469 31.667969 L 76.46875 31.667969 C 78.210938 31.667969 78.992188 32.539062 78.992188 33.925781 Z M 70.730469 29.078125 L 70.730469 44.667969 L 73.855469 44.667969 L 73.855469 38.59375 L 75.332031 38.59375 L 78.769531 44.667969 L 82.386719 44.667969 L 78.65625 38.347656 C 81.160156 37.675781 82.210938 35.753906 82.210938 33.855469 C 82.210938 31.246094 80.332031 29.078125 76.582031 29.078125 Z M 90.359375 34.660156 C 91.96875 34.660156 93.265625 35.6875 93.308594 37.320312 L 87.433594 37.320312 C 87.679688 35.621094 88.863281 34.660156 90.359375 34.660156 Z M 96.234375 40.78125 L 92.863281 40.78125 C 92.460938 41.605469 91.722656 42.277344 90.382812 42.277344 C 88.820312 42.277344 87.570312 41.25 87.414062 39.417969 L 96.457031 39.417969 C 96.523438 39.015625 96.546875 38.613281 96.546875 38.210938 C 96.546875 34.527344 94.023438 32.09375 90.449219 32.09375 C 86.789062 32.09375 84.242188 34.570312 84.242188 38.480469 C 84.242188 42.367188 86.855469 44.867188 90.449219 44.867188 C 93.507812 44.867188 95.5625 43.058594 96.234375 40.78125 Z M 108.429688 41.136719 C 108.339844 36.605469 101.484375 38.011719 101.484375 35.753906 C 101.484375 35.039062 102.085938 34.570312 103.246094 34.570312 C 104.476562 34.570312 105.234375 35.21875 105.324219 36.179688 L 108.316406 36.179688 C 108.136719 33.722656 106.328125 32.09375 103.335938 32.09375 C 100.277344 32.09375 98.445312 33.746094 98.445312 35.800781 C 98.445312 40.335938 105.4375 38.925781 105.4375 41.136719 C 105.4375 41.851562 104.765625 42.410156 103.539062 42.410156 C 102.285156 42.410156 101.414062 41.695312 101.304688 40.757812 L 98.15625 40.757812 C 98.289062 43.058594 100.457031 44.867188 103.558594 44.867188 C 106.574219 44.867188 108.429688 43.257812 108.429688 41.136719 Z M 110.996094 44.667969 L 114.125 44.667969 L 114.125 32.292969 L 110.996094 32.292969 Z M 112.582031 30.820312 C 113.675781 30.820312 114.503906 30.015625 114.503906 28.988281 C 114.503906 27.960938 113.675781 27.15625 112.582031 27.15625 C 111.464844 27.15625 110.660156 27.960938 110.660156 28.988281 C 110.660156 30.015625 111.464844 30.820312 112.582031 30.820312 Z M 117.207031 44.667969 L 120.332031 44.667969 L 120.332031 28.140625 L 117.207031 28.140625 Z M 123.414062 44.667969 L 126.539062 44.667969 L 126.539062 32.292969 L 123.414062 32.292969 Z M 125 30.820312 C 126.09375 30.820312 126.921875 30.015625 126.921875 28.988281 C 126.921875 27.960938 126.09375 27.15625 125 27.15625 C 123.882812 27.15625 123.078125 27.960938 123.078125 28.988281 C 123.078125 30.015625 123.882812 30.820312 125 30.820312 Z M 134.9375 34.660156 C 136.546875 34.660156 137.839844 35.6875 137.886719 37.320312 L 132.011719 37.320312 C 132.257812 35.621094 133.441406 34.660156 134.9375 34.660156 Z M 140.8125 40.78125 L 137.4375 40.78125 C 137.039062 41.605469 136.300781 42.277344 134.960938 42.277344 C 133.398438 42.277344 132.144531 41.25 131.988281 39.417969 L 141.035156 39.417969 C 141.101562 39.015625 141.125 38.613281 141.125 38.210938 C 141.125 34.527344 138.601562 32.09375 135.027344 32.09375 C 131.363281 32.09375 128.820312 34.570312 128.820312 38.480469 C 128.820312 42.367188 131.433594 44.867188 135.027344 44.867188 C 138.085938 44.867188 140.140625 43.058594 140.8125 40.78125 Z M 152.066406 44.667969 L 155.195312 44.667969 L 155.195312 37.410156 C 155.195312 33.992188 153.140625 32.117188 150.257812 32.117188 C 148.671875 32.117188 147.332031 32.785156 146.527344 33.835938 L 146.527344 32.292969 L 143.402344 32.292969 L 143.402344 44.667969 L 146.527344 44.667969 L 146.527344 37.832031 C 146.527344 35.84375 147.625 34.773438 149.320312 34.773438 C 150.972656 34.773438 152.066406 35.84375 152.066406 37.832031 Z M 158.65625 40.824219 C 158.65625 43.660156 160.242188 44.667969 162.609375 44.667969 L 164.574219 44.667969 L 164.574219 42.03125 L 163.121094 42.03125 C 162.140625 42.03125 161.804688 41.675781 161.804688 40.847656 L 161.804688 34.863281 L 164.574219 34.863281 L 164.574219 32.292969 L 161.804688 32.292969 L 161.804688 29.234375 L 158.65625 29.234375 L 158.65625 32.292969 L 157.183594 32.292969 L 157.183594 34.863281 L 158.65625 34.863281 Z M 172.28125 29.078125 L 166.828125 29.078125 L 166.828125 44.667969 L 172.28125 44.667969 C 177.257812 44.667969 180.496094 41.605469 180.496094 36.894531 C 180.496094 32.160156 177.257812 29.078125 172.28125 29.078125 Z M 169.957031 42.007812 L 169.957031 31.714844 L 172.167969 31.714844 C 175.449219 31.714844 177.304688 33.65625 177.304688 36.894531 C 177.304688 40.132812 175.449219 42.007812 172.167969 42.007812 Z M 191.53125 40.066406 C 191.53125 41.382812 190.636719 42.121094 189.117188 42.121094 L 185.96875 42.121094 L 185.96875 37.921875 L 189.050781 37.921875 C 190.570312 37.921875 191.53125 38.726562 191.53125 40.066406 Z M 191.152344 33.566406 C 191.152344 34.839844 190.300781 35.511719 188.828125 35.511719 L 185.96875 35.511719 L 185.96875 31.601562 L 188.828125 31.601562 C 190.300781 31.601562 191.152344 32.316406 191.152344 33.566406 Z M 194.703125 40.445312 C 194.703125 38.613281 193.453125 36.984375 191.6875 36.671875 C 193.207031 36.179688 194.34375 34.996094 194.34375 33.097656 C 194.34375 30.773438 192.535156 29.078125 189.273438 29.078125 L 182.84375 29.078125 L 182.84375 44.667969 L 189.566406 44.667969 C 192.804688 44.667969 194.703125 42.925781 194.703125 40.445312 Z M 194.703125 40.445312 "/>
</g>
</svg>
